<?xml version="1.0" encoding="utf-8"?>
<!-- Generator: Adobe Illustrator 16.0.0, SVG Export Plug-In . SVG Version: 6.00 Build 0)  -->
<!DOCTYPE svg PUBLIC "-//W3C//DTD SVG 1.1//EN" "http://www.w3.org/Graphics/SVG/1.1/DTD/svg11.dtd">
<svg version="1.1" id="Layer_1" xmlns="http://www.w3.org/2000/svg" xmlns:xlink="http://www.w3.org/1999/xlink" x="0px" y="0px"
	 width="3000px" height="3000px" viewBox="0 0 3000 3000" enable-background="new 0 0 3000 3000" xml:space="preserve">
<linearGradient id="SVGID_1_" gradientUnits="userSpaceOnUse" x1="0" y1="1507" x2="3025" y2="1507">
	<stop  offset="0" style="stop-color:#051A7F"/>
	<stop  offset="0.5027" style="stop-color:#39C1EA"/>
	<stop  offset="1" style="stop-color:#162C72"/>
</linearGradient>
<rect fill="url(#SVGID_1_)" width="3025" height="3014"/>
<path fill="#BDC3C7" d="M278.2,1850.169v-195.652h-81.438v282.333L278.2,1850.169z"/>
<path fill="#BDC3C7" d="M196.761,1443.307V1274.21c0-16.855,9.117-30.523,20.364-30.523h40.716
	c11.241,0,20.359,13.668,20.359,30.523v169.096H196.761z"/>
<path fill="#285680" d="M402.4,3013.96h364.463l-81.449-1251.392v-424.867c0-50.581-27.344-91.569-61.075-91.569H463.49
	c-33.733,0-61.089,40.989-61.089,91.569V3013.96z"/>
<path fill="#7F6E5D" d="M1271.965,3013.96h142.527c22.487,0,40.721-19.726,40.721-44.089v-1102.18
	c-0.065-24.316-18.263-44.015-40.721-44.082h-101.804c-22.46,0.067-40.649,19.766-40.724,44.082v589.448"/>
<path fill="#4482C3" d="M500.482,3013.96H92.501V1995.746c0-9.887,3.789-19.145,10.149-24.871l359.734-323.529
	c7.353-6.632,17.009-7.496,25.037-2.27c8.024,5.237,13.061,15.721,13.061,27.146V3013.96z"/>
<path fill="#3F5C6C" d="M1072.272,3013.96H644.701V1884.649c0-16.86,9.109-30.526,20.364-30.526h386.85
	c11.246,0,20.358,13.666,20.358,30.526v318.963"/>
<path fill="#7D6599" d="M1336.965,3013.96H990.831v-794.995c-0.228-9.072,2.369-17.787,7.014-23.592
	c4.65-5.809,10.838-8.051,16.752-6.079l307.667,118.581c8.829,3.727,14.871,15.918,14.701,29.655V3013.96z"/>
<path fill="#BDC3C7" d="M1051.915,1854.123h-386.85l30.535-114.232c6.179-23.153,21.125-38.331,37.747-38.372H983.62
	c16.631,0.041,31.579,15.219,37.751,38.372L1051.915,1854.123z"/>
<path fill="#3F5C6C" d="M787.229,1579.438h142.524c11.24,0,20.357,13.654,20.357,30.52v91.562H766.863v-91.562
	C766.863,1593.092,775.983,1579.438,787.229,1579.438z"/>
<path fill="#BDC3C7" d="M827.94,1335.257h61.089c11.241,0,20.361,13.673,20.361,30.525v213.655H807.59v-213.655
	C807.59,1348.93,816.7,1335.257,827.94,1335.257z"/>
<path fill="#2C2F38" d="M237.479,3013.96v-152.6c0-16.866,9.117-30.527,20.362-30.527h40.724c11.245,0,20.364,13.661,20.364,30.527
	v152.6H237.479z"/>
<g>
	<path fill="#F0C419" d="M318.928,2678.23c-11.246,0-20.364-13.669-20.364-30.527v-122.097c0-16.855,9.118-30.509,20.364-30.509
		c11.244,0,20.36,13.653,20.36,30.509v122.097C339.289,2664.562,330.172,2678.23,318.928,2678.23z"/>
	<path fill="#F0C419" d="M237.479,2678.23c-11.244,0-20.354-13.669-20.354-30.527v-122.097c0-16.855,9.11-30.509,20.354-30.509
		c11.251,0,20.362,13.653,20.362,30.509v122.097C257.841,2664.562,248.73,2678.23,237.479,2678.23z"/>
	<path fill="#F0C419" d="M318.928,2434.052c-11.246,0-20.364-13.673-20.364-30.526v-122.078c0-16.869,9.118-30.523,20.364-30.523
		c11.244,0,20.36,13.654,20.36,30.523v122.078C339.289,2420.379,330.172,2434.052,318.928,2434.052z"/>
</g>
<path fill="#2C3E50" d="M237.479,2434.052c-11.244,0-20.354-13.673-20.354-30.526v-122.078c0-16.869,9.11-30.523,20.354-30.523
	c11.251,0,20.362,13.654,20.362,30.523v122.078C257.841,2420.379,248.73,2434.052,237.479,2434.052z"/>
<path fill="#2C3E50" d="M318.928,2189.869c-11.246,0-20.364-13.667-20.364-30.522v-122.08c0-16.86,9.118-30.525,20.364-30.525
	c11.244,0,20.36,13.665,20.36,30.525v122.08C339.289,2176.202,330.172,2189.869,318.928,2189.869z"/>
<path fill="#F0C419" d="M237.479,2189.869c-11.244,0-20.354-13.667-20.354-30.522v-122.08c0-16.86,9.11-30.525,20.354-30.525
	c11.251,0,20.362,13.665,20.362,30.525v122.08C257.841,2176.202,248.73,2189.869,237.479,2189.869z"/>
<path fill="#F0C419" d="M1153.717,2739.258c-11.246,0-20.362-13.655-20.362-30.512v-91.57c0-16.855,9.117-30.521,20.362-30.521
	c11.242,0,20.359,13.665,20.359,30.521v91.57C1174.076,2725.603,1164.959,2739.258,1153.717,2739.258z"/>
<path fill="#2C3E50" d="M1072.272,2739.258c-11.24,0-20.358-13.655-20.358-30.512v-91.57c0-16.855,9.118-30.521,20.358-30.521
	c11.246,0,20.367,13.665,20.367,30.521v91.57C1092.64,2725.603,1083.518,2739.258,1072.272,2739.258z"/>
<path fill="#F0C419" d="M1072.272,2525.606c-11.24,0-20.358-13.658-20.358-30.509v-91.572c0-16.857,9.118-30.521,20.358-30.521
	c11.246,0,20.367,13.664,20.367,30.521v91.572C1092.64,2511.948,1083.518,2525.606,1072.272,2525.606z"/>
<path fill="#F0C419" d="M1153.717,2525.606c-11.246,0-20.362-13.658-20.362-30.509v-91.572c0-16.857,9.117-30.521,20.362-30.521
	c11.242,0,20.359,13.664,20.359,30.521v91.572C1174.076,2511.948,1164.959,2525.606,1153.717,2525.606z"/>
<path fill="#2C3E50" d="M909.391,2013.042v994.343h-81.45v-994.343c0-20.329,9.118-36.824,20.364-36.824h40.725
	C900.271,1976.218,909.391,1992.713,909.391,2013.042z"/>
<path fill="#2C2F38" d="M827.94,2006.741h81.45v183.128h-81.45V2006.741z"/>
<path fill="#F0C419" d="M990.831,2037.267h-20.365c-11.241,0-20.354-13.664-20.354-30.525c0-16.852,9.113-30.523,20.354-30.523
	h20.365c11.24,0,20.36,13.672,20.36,30.523C1011.191,2023.603,1002.071,2037.267,990.831,2037.267z"/>
<path fill="#2C3E50" d="M1373.775,2246.851h-20.361c-11.245,0-20.364-11.851-20.364-26.459c0-14.604,9.119-26.452,20.364-26.452
	h20.361c11.246,0,20.357,11.848,20.357,26.452C1394.132,2235,1385.021,2246.851,1373.775,2246.851z"/>
<path fill="#F0C419" d="M1373.775,2141.039h-20.361c-11.245,0-20.364-11.838-20.364-26.447c0-14.61,9.119-26.451,20.364-26.451
	h20.361c11.246,0,20.357,11.841,20.357,26.451C1394.132,2129.201,1385.021,2141.039,1373.775,2141.039z"/>
<path fill="#F0C419" d="M1373.775,2035.232h-20.361c-11.245,0-20.364-11.835-20.364-26.453c0-14.606,9.119-26.445,20.364-26.445
	h20.361c11.246,0,20.357,11.839,20.357,26.445C1394.132,2023.397,1385.021,2035.232,1373.775,2035.232z"/>
<path fill="#F0C419" d="M1373.775,1929.428h-20.361c-11.245,0-20.364-11.851-20.364-26.455c0-14.608,9.119-26.452,20.364-26.452
	h20.361c11.246,0,20.357,11.844,20.357,26.452C1394.132,1917.577,1385.021,1929.428,1373.775,1929.428z"/>
<path fill="#2C3E50" d="M1373.775,2345.295h-20.361c-11.245,0-20.364-11.846-20.364-26.45c0-14.616,9.119-26.46,20.364-26.46h20.361
	c11.246,0,20.357,11.844,20.357,26.46C1394.132,2333.449,1385.021,2345.295,1373.775,2345.295z"/>
<path fill="#F0C419" d="M746.5,2403.525h-20.358c-11.247,0-20.364-13.672-20.364-30.521c0-16.855,9.117-30.521,20.364-30.521H746.5
	c11.247,0,20.364,13.666,20.364,30.521C766.863,2389.854,757.746,2403.525,746.5,2403.525z"/>
<path fill="#2C3E50" d="M746.5,2281.447h-20.358c-11.247,0-20.364-13.674-20.364-30.523c0-16.859,9.117-30.525,20.364-30.525H746.5
	c11.247,0,20.364,13.666,20.364,30.525C766.863,2267.773,757.746,2281.447,746.5,2281.447z"/>
<path fill="#F0C419" d="M746.5,2159.347h-20.358c-11.247,0-20.364-13.661-20.364-30.522c0-16.855,9.117-30.525,20.364-30.525H746.5
	c11.247,0,20.364,13.67,20.364,30.525C766.863,2145.686,757.746,2159.347,746.5,2159.347z"/>
<path fill="#F0C419" d="M746.5,2037.267h-20.358c-11.247,0-20.364-13.664-20.364-30.525c0-16.852,9.117-30.523,20.364-30.523H746.5
	c11.247,0,20.364,13.672,20.364,30.523C766.863,2023.603,757.746,2037.267,746.5,2037.267z"/>
<path fill="#2C3E50" d="M746.5,2891.881h-20.358c-11.247,0-20.364-13.667-20.364-30.521c0-16.866,9.117-30.527,20.364-30.527H746.5
	c11.247,0,20.364,13.661,20.364,30.527C766.863,2878.214,757.746,2891.881,746.5,2891.881z"/>
<path fill="#F0C419" d="M746.5,2769.784h-20.358c-11.247,0-20.364-13.65-20.364-30.526c0-16.85,9.117-30.512,20.364-30.512H746.5
	c11.247,0,20.364,13.662,20.364,30.512C766.863,2756.134,757.746,2769.784,746.5,2769.784z"/>
<path fill="#F0C419" d="M746.5,2647.703h-20.358c-11.247,0-20.364-13.668-20.364-30.527c0-16.855,9.117-30.521,20.364-30.521H746.5
	c11.247,0,20.364,13.665,20.364,30.521C766.863,2634.035,757.746,2647.703,746.5,2647.703z"/>
<path fill="#2C3E50" d="M746.5,2525.606h-20.358c-11.247,0-20.364-13.658-20.364-30.509c0-16.869,9.117-30.525,20.364-30.525H746.5
	c11.247,0,20.364,13.656,20.364,30.525C766.863,2511.948,757.746,2525.606,746.5,2525.606z"/>
<path fill="#2C3E50" d="M603.974,1762.568h-20.361c-11.244,0-20.361-13.67-20.361-30.529c0-16.852,9.117-30.521,20.361-30.521
	h20.361c11.248,0,20.365,13.669,20.365,30.521C624.339,1748.898,615.222,1762.568,603.974,1762.568z"/>
<path fill="#2C3E50" d="M603.974,1640.471h-20.361c-11.244,0-20.361-13.655-20.361-30.514c0-16.865,9.117-30.52,20.361-30.52h20.361
	c11.248,0,20.365,13.654,20.365,30.52C624.339,1626.815,615.222,1640.471,603.974,1640.471z"/>
<path fill="#F0C419" d="M603.974,1518.387h-20.361c-11.244,0-20.361-13.667-20.361-30.521c0-16.857,9.117-30.526,20.361-30.526
	h20.361c11.248,0,20.365,13.669,20.365,30.526C624.339,1504.72,615.222,1518.387,603.974,1518.387z"/>
<path fill="#F0C419" d="M603.974,1396.307h-20.361c-11.244,0-20.361-13.668-20.361-30.525c0-16.853,9.117-30.525,20.361-30.525
	h20.361c11.248,0,20.365,13.673,20.365,30.525C624.339,1382.639,615.222,1396.307,603.974,1396.307z"/>
<path fill="#F0C419" d="M420.728,2678.23h-20.362c-11.246,0-20.362-13.669-20.362-30.527c0-16.855,9.117-30.527,20.362-30.527
	h20.362c11.241,0,20.361,13.672,20.361,30.527C441.089,2664.562,431.969,2678.23,420.728,2678.23z"/>
<path fill="#2C3E50" d="M420.728,2556.135h-20.362c-11.246,0-20.362-13.674-20.362-30.528c0-16.855,9.117-30.509,20.362-30.509
	h20.362c11.241,0,20.361,13.653,20.361,30.509C441.089,2542.461,431.969,2556.135,420.728,2556.135z"/>
<path fill="#F0C419" d="M420.728,2922.402h-20.362c-11.246,0-20.362-13.665-20.362-30.521c0-16.858,9.117-30.521,20.362-30.521
	h20.362c11.241,0,20.361,13.662,20.361,30.521C441.089,2908.737,431.969,2922.402,420.728,2922.402z"/>
<path fill="#2C3E50" d="M420.728,2800.312h-20.362c-11.246,0-20.362-13.669-20.362-30.528c0-16.854,9.117-30.526,20.362-30.526
	h20.362c11.241,0,20.361,13.672,20.361,30.526C441.089,2786.644,431.969,2800.312,420.728,2800.312z"/>
<path fill="#F0C419" d="M420.728,2434.052h-20.362c-11.246,0-20.362-13.673-20.362-30.526c0-16.857,9.117-30.521,20.362-30.521
	h20.362c11.241,0,20.361,13.664,20.361,30.521C441.089,2420.379,431.969,2434.052,420.728,2434.052z"/>
<path fill="#F0C419" d="M420.728,2311.95h-20.362c-11.246,0-20.362-13.647-20.362-30.503c0-16.869,9.117-30.523,20.362-30.523
	h20.362c11.241,0,20.361,13.654,20.361,30.523C441.089,2298.303,431.969,2311.95,420.728,2311.95z"/>
<path fill="#2C3E50" d="M420.728,2189.869h-20.362c-11.246,0-20.362-13.667-20.362-30.522c0-16.852,9.117-30.522,20.362-30.522
	h20.362c11.241,0,20.361,13.671,20.361,30.522C441.089,2176.202,431.969,2189.869,420.728,2189.869z"/>
<path fill="#F0C419" d="M420.728,2067.776h-20.362c-11.246,0-20.362-13.653-20.362-30.51c0-16.86,9.117-30.525,20.362-30.525h20.362
	c11.241,0,20.361,13.665,20.361,30.525C441.089,2054.123,431.969,2067.776,420.728,2067.776z"/>
<path fill="#F0C419" d="M1255.527,2922.402h-20.363c-11.245,0-20.363-13.665-20.363-30.521c0-16.858,9.118-30.521,20.363-30.521
	h20.363c11.244,0,20.355,13.662,20.355,30.521C1275.882,2908.737,1266.771,2922.402,1255.527,2922.402z"/>
<path fill="#2C3E50" d="M1255.527,2708.746h-20.363c-11.245,0-20.363-13.665-20.363-30.516c0-16.863,9.118-30.527,20.363-30.527
	h20.363c11.244,0,20.355,13.664,20.355,30.527C1275.882,2695.081,1266.771,2708.746,1255.527,2708.746z"/>
<path fill="#F0C419" d="M1255.527,2495.098h-20.363c-11.245,0-20.363-13.668-20.363-30.525c0-16.854,9.118-30.521,20.363-30.521
	h20.363c11.244,0,20.355,13.666,20.355,30.521C1275.882,2481.43,1266.771,2495.098,1255.527,2495.098z"/>
<path fill="#285680" d="M318.928,1548.911c0.052,43.599-15.488,83.915-40.729,105.605c-25.19-21.758-40.714-62.019-40.714-105.605
	c0-43.583,15.524-83.859,40.714-105.604C303.44,1464.998,318.98,1505.299,318.928,1548.911z"/>
<path fill="#4482C3" d="M278.2,1654.517c-34.218,29.754-77.761,18.343-103.213-27.067c-25.452-45.407-25.452-111.668,0-157.076
	c25.452-45.408,68.995-56.833,103.213-27.067c-25.19,21.745-40.714,62.021-40.714,105.604
	C237.485,1592.498,253.01,1632.759,278.2,1654.517z"/>
<path fill="#2C2F38" d="M1072.272,3013.96v-152.6c0-16.866,9.121-30.527,20.367-30.527h40.715c11.243,0,20.362,13.661,20.362,30.527
	v152.6H1072.272z"/>
<path fill="#BDC3C7" d="M2713.027,1872.629v-190.77h81.327v275.289L2713.027,1872.629z"/>
<path fill="#BDC3C7" d="M2794.354,1607.747v-164.88c0-16.436-9.106-29.761-20.335-29.761h-40.666
	c-11.223,0-20.326,13.325-20.326,29.761v164.88H2794.354z"/>
<path fill="#7F2950" d="M2534.197,3011.637h-363.972l81.341-1220.172v-414.261c0-49.317,27.311-89.286,60.996-89.286h160.625
	c33.692,0,61.01,39.969,61.01,89.286V3011.637z"/>
<path fill="#6B5C7C" d="M1879.076,3007.385H1736.74c-22.454,0-40.665-21.211-40.665-47.402v-1184.91
	c0.066-26.133,18.238-47.309,40.665-47.384h101.672c22.426,0.075,40.588,21.251,40.664,47.384v633.7"/>
<path fill="#C1A944" d="M2500.364,3007.385h401.272v-992.804c0-9.642-3.721-18.671-9.98-24.255l-353.824-315.456
	c-7.231-6.467-16.729-7.313-24.621-2.213c-7.897,5.107-12.847,15.327-12.847,26.467V3007.385z"/>
<path fill="#3F6B46" d="M1865.232,3011.637h426.994V1910.503c0-16.437-9.102-29.766-20.338-29.766h-386.323
	c-11.233,0-20.333,13.329-20.333,29.766v311.005"/>
<path fill="#4CA6C9" d="M1432.02,3015.108h345.664v-922.414c0.234-10.526-2.359-20.638-7.004-27.38
	c-4.641-6.736-10.822-9.34-16.73-7.051l-307.25,137.594c-8.812,4.32-14.847,18.461-14.679,34.404V3015.108z"/>
<path fill="#BDC3C7" d="M1885.565,1880.737h386.323l-30.49-157.327c-6.172-31.889-21.098-52.794-37.699-52.852h-249.936
	c-16.608,0.058-31.533,20.963-37.695,52.852L1885.565,1880.737z"/>
<path fill="#3F5C6C" d="M2149.889,1502.424h-142.331c-11.222,0-20.329,18.803-20.329,42.036v126.099h182.997V1544.46
	C2170.226,1521.227,2161.122,1502.424,2149.889,1502.424z"/>
<path fill="#BDC3C7" d="M2109.236,1166.117h-61.004c-11.231,0-20.339,18.831-20.339,42.041v294.266h101.665v-294.266
	C2129.559,1184.948,2120.463,1166.117,2109.236,1166.117z"/>
<path fill="#2C2F38" d="M2753.692,3007.385v-148.798c0-16.438-9.104-29.762-20.339-29.762h-40.666
	c-11.228,0-20.334,13.323-20.334,29.762v148.798H2753.692z"/>
<g>
	<path fill="#F0C419" d="M2672.354,2680.031c11.229,0,20.334-13.336,20.334-29.764v-119.05c0-16.438-9.104-29.753-20.334-29.753
		c-11.227,0-20.336,13.315-20.336,29.753v119.05C2652.018,2666.695,2661.127,2680.031,2672.354,2680.031z"/>
	<path fill="#F0C419" d="M2753.692,2680.031c11.23,0,20.327-13.336,20.327-29.764v-119.05c0-16.438-9.097-29.753-20.327-29.753
		c-11.234,0-20.339,13.315-20.339,29.753v119.05C2733.354,2666.695,2742.458,2680.031,2753.692,2680.031z"/>
	<path fill="#F0C419" d="M2672.354,2441.945c11.229,0,20.334-13.333,20.334-29.768v-119.028c0-16.446-9.104-29.763-20.334-29.763
		c-11.227,0-20.336,13.316-20.336,29.763v119.028C2652.018,2428.612,2661.127,2441.945,2672.354,2441.945z"/>
</g>
<path fill="#2C3E50" d="M2753.692,2441.945c11.23,0,20.327-13.333,20.327-29.768v-119.028c0-16.446-9.097-29.763-20.327-29.763
	c-11.234,0-20.339,13.316-20.339,29.763v119.028C2733.354,2428.612,2742.458,2441.945,2753.692,2441.945z"/>
<path fill="#2C3E50" d="M2672.354,2203.854c11.229,0,20.334-13.321,20.334-29.761V2055.06c0-16.44-9.104-29.759-20.334-29.759
	c-11.227,0-20.336,13.318-20.336,29.759v119.034C2652.018,2190.533,2661.127,2203.854,2672.354,2203.854z"/>
<path fill="#F0C419" d="M2753.692,2203.854c11.23,0,20.327-13.321,20.327-29.761V2055.06c0-16.44-9.097-29.759-20.327-29.759
	c-11.234,0-20.339,13.318-20.339,29.759v119.034C2733.354,2190.533,2742.458,2203.854,2753.692,2203.854z"/>
<path fill="#F0C419" d="M1625.188,2736.212c11.234,0,20.334-13.314,20.334-29.749v-89.287c0-16.43-9.1-29.76-20.334-29.76
	c-11.226,0-20.329,13.33-20.329,29.76v89.287C1604.859,2722.897,1613.963,2736.212,1625.188,2736.212z"/>
<path fill="#2C3E50" d="M1706.521,2736.212c11.227,0,20.333-13.314,20.333-29.749v-89.287c0-16.43-9.106-29.76-20.333-29.76
	c-11.23,0-20.34,13.33-20.34,29.76v89.287C1686.182,2722.897,1695.291,2736.212,1706.521,2736.212z"/>
<path fill="#F0C419" d="M1706.521,2527.895c11.227,0,20.333-13.314,20.333-29.752v-89.287c0-16.436-9.106-29.758-20.333-29.758
	c-11.23,0-20.34,13.322-20.34,29.758v89.287C1686.182,2514.58,1695.291,2527.895,1706.521,2527.895z"/>
<path fill="#F0C419" d="M1625.188,2527.895c11.234,0,20.334-13.314,20.334-29.752v-89.287c0-16.436-9.1-29.758-20.334-29.758
	c-11.226,0-20.329,13.322-20.329,29.758v89.287C1604.859,2514.58,1613.963,2527.895,1625.188,2527.895z"/>
<path fill="#2C3E50" d="M2027.894,2035.93v975.707h81.343V2035.93c0-19.955-9.109-36.142-20.336-36.142h-40.668
	C2037.001,1999.788,2027.894,2015.975,2027.894,2035.93z"/>
<path fill="#2C2F38" d="M2109.236,2535.473h-81.343v178.561h81.343V2535.473z"/>
<path fill="#F0C419" d="M1946.562,2059.314h20.341c11.223,0,20.325-13.326,20.325-29.767c0-16.428-9.103-29.76-20.325-29.76h-20.341
	c-11.226,0-20.329,13.332-20.329,29.76C1926.233,2045.988,1935.337,2059.314,1946.562,2059.314z"/>
<path fill="#F0C419" d="M1777.404,1955.193h20.336c11.231,0,20.334-12.725,20.334-28.44c0-15.707-9.103-28.426-20.334-28.426
	h-20.336c-11.229,0-20.329,12.719-20.329,28.426C1757.075,1942.469,1766.175,1955.193,1777.404,1955.193z"/>
<path fill="#F0C419" d="M1777.404,1841.446h20.336c11.231,0,20.334-12.735,20.334-28.438c0-15.704-9.103-28.442-20.334-28.442
	h-20.336c-11.229,0-20.329,12.738-20.329,28.442C1757.075,1828.711,1766.175,1841.446,1777.404,1841.446z"/>
<path fill="#F0C419" d="M2190.562,2416.434h20.329c11.234,0,20.339-13.332,20.339-29.76c0-16.437-9.104-29.768-20.339-29.768
	h-20.329c-11.233,0-20.337,13.331-20.337,29.768C2170.226,2403.102,2179.329,2416.434,2190.562,2416.434z"/>
<path fill="#2C3E50" d="M2190.562,2297.398h20.329c11.234,0,20.339-13.336,20.339-29.76c0-16.439-9.104-29.765-20.339-29.765
	h-20.329c-11.233,0-20.337,13.325-20.337,29.765C2170.226,2284.062,2179.329,2297.398,2190.562,2297.398z"/>
<path fill="#F0C419" d="M2190.562,2178.348h20.329c11.234,0,20.339-13.322,20.339-29.758c0-16.439-9.104-29.762-20.339-29.762
	h-20.329c-11.233,0-20.337,13.322-20.337,29.762C2170.226,2165.025,2179.329,2178.348,2190.562,2178.348z"/>
<path fill="#F0C419" d="M2190.562,2059.314h20.329c11.234,0,20.339-13.326,20.339-29.767c0-16.428-9.104-29.76-20.339-29.76h-20.329
	c-11.233,0-20.337,13.332-20.337,29.76C2170.226,2045.988,2179.329,2059.314,2190.562,2059.314z"/>
<path fill="#2C3E50" d="M2190.562,2892.603h20.329c11.234,0,20.339-13.332,20.339-29.761c0-16.44-9.104-29.767-20.339-29.767
	h-20.329c-11.233,0-20.337,13.326-20.337,29.767C2170.226,2879.271,2179.329,2892.603,2190.562,2892.603z"/>
<path fill="#F0C419" d="M2190.562,2773.549h20.329c11.234,0,20.339-13.308,20.339-29.762c0-16.431-9.104-29.746-20.339-29.746
	h-20.329c-11.233,0-20.337,13.315-20.337,29.746C2170.226,2760.241,2179.329,2773.549,2190.562,2773.549z"/>
<path fill="#F0C419" d="M2190.562,2654.518h20.329c11.234,0,20.339-13.328,20.339-29.765c0-16.435-9.104-29.767-20.339-29.767
	h-20.329c-11.233,0-20.337,13.332-20.337,29.767C2170.226,2641.189,2179.329,2654.518,2190.562,2654.518z"/>
<path fill="#2C3E50" d="M2190.562,2535.469h20.329c11.234,0,20.339-13.313,20.339-29.758c0-16.441-9.104-29.752-20.339-29.752
	h-20.329c-11.233,0-20.337,13.311-20.337,29.752C2170.226,2522.155,2179.329,2535.469,2190.562,2535.469z"/>
<path fill="#2C3E50" d="M2387.694,1787.214h20.336c11.224,0,20.331-13.328,20.331-29.765c0-16.431-9.107-29.761-20.331-29.761
	h-20.336c-11.232,0-20.335,13.33-20.335,29.761C2367.359,1773.886,2376.462,1787.214,2387.694,1787.214z"/>
<path fill="#2C3E50" d="M2387.694,1668.164h20.336c11.224,0,20.331-13.314,20.331-29.747c0-16.448-9.107-29.761-20.331-29.761
	h-20.336c-11.232,0-20.335,13.312-20.335,29.761C2367.359,1654.85,2376.462,1668.164,2387.694,1668.164z"/>
<path fill="#F0C419" d="M2387.694,1549.129h20.336c11.224,0,20.331-13.326,20.331-29.763c0-16.435-9.107-29.765-20.331-29.765
	h-20.336c-11.232,0-20.335,13.33-20.335,29.765C2367.359,1535.803,2376.462,1549.129,2387.694,1549.129z"/>
<path fill="#F0C419" d="M2387.694,1430.095h20.336c11.224,0,20.331-13.327,20.331-29.763c0-16.432-9.107-29.766-20.331-29.766
	h-20.336c-11.232,0-20.335,13.334-20.335,29.766C2367.359,1416.769,2376.462,1430.095,2387.694,1430.095z"/>
<path fill="#F0C419" d="M2570.693,2680.031h20.334c11.231,0,20.334-13.336,20.334-29.764c0-16.438-9.103-29.771-20.334-29.771
	h-20.334c-11.227,0-20.336,13.334-20.336,29.771C2550.357,2666.695,2559.467,2680.031,2570.693,2680.031z"/>
<path fill="#2C3E50" d="M2570.693,2560.98h20.334c11.231,0,20.334-13.332,20.334-29.763c0-16.438-9.103-29.753-20.334-29.753
	h-20.334c-11.227,0-20.336,13.315-20.336,29.753C2550.357,2547.648,2559.467,2560.98,2570.693,2560.98z"/>
<path fill="#F0C419" d="M2570.693,2918.109h20.334c11.231,0,20.334-13.323,20.334-29.761c0-16.437-9.103-29.762-20.334-29.762
	h-20.334c-11.227,0-20.336,13.325-20.336,29.762C2550.357,2904.786,2559.467,2918.109,2570.693,2918.109z"/>
<path fill="#2C3E50" d="M2570.693,2799.066h20.334c11.231,0,20.334-13.328,20.334-29.768c0-16.434-9.103-29.762-20.334-29.762
	h-20.334c-11.227,0-20.336,13.328-20.336,29.762C2550.357,2785.738,2559.467,2799.066,2570.693,2799.066z"/>
<path fill="#F0C419" d="M2570.693,2441.945h20.334c11.231,0,20.334-13.333,20.334-29.768c0-16.438-9.103-29.755-20.334-29.755
	h-20.334c-11.227,0-20.336,13.317-20.336,29.755C2550.357,2428.612,2559.467,2441.945,2570.693,2441.945z"/>
<path fill="#F0C419" d="M2570.693,2322.885h20.334c11.231,0,20.334-13.305,20.334-29.735c0-16.446-9.103-29.763-20.334-29.763
	h-20.334c-11.227,0-20.336,13.316-20.336,29.763C2550.357,2309.58,2559.467,2322.885,2570.693,2322.885z"/>
<path fill="#2C3E50" d="M2570.693,2203.854h20.334c11.231,0,20.334-13.321,20.334-29.761c0-16.431-9.103-29.762-20.334-29.762
	h-20.334c-11.227,0-20.336,13.331-20.336,29.762C2550.357,2190.533,2559.467,2203.854,2570.693,2203.854z"/>
<path fill="#F0C419" d="M2570.693,2084.811h20.334c11.231,0,20.334-13.314,20.334-29.751c0-16.44-9.103-29.759-20.334-29.759
	h-20.334c-11.227,0-20.336,13.318-20.336,29.759C2550.357,2071.496,2559.467,2084.811,2570.693,2084.811z"/>
<path fill="#F0C419" d="M1514.516,2751.103h20.334c11.234,0,20.337-13.327,20.337-29.759c0-16.44-9.103-29.765-20.337-29.765
	h-20.334c-11.229,0-20.33,13.324-20.33,29.765C1494.186,2737.775,1503.287,2751.103,1514.516,2751.103z"/>
<path fill="#2C3E50" d="M1514.516,2542.775h20.334c11.234,0,20.337-13.321,20.337-29.751c0-16.447-9.103-29.765-20.337-29.765
	h-20.334c-11.229,0-20.33,13.317-20.33,29.765C1494.186,2529.454,1503.287,2542.775,1514.516,2542.775z"/>
<path fill="#F0C419" d="M1514.516,2382.412h20.334c11.234,0,20.337-13.316,20.337-29.757c0-16.431-9.103-29.759-20.337-29.759
	h-20.334c-11.229,0-20.33,13.328-20.33,29.759C1494.186,2369.096,1503.287,2382.412,1514.516,2382.412z"/>
<path fill="#285680" d="M2672.354,1642.678c-0.054,42.51,15.47,81.818,40.674,102.965c25.156-21.211,40.661-60.467,40.661-102.965
	c0-42.494-15.505-81.771-40.661-102.97C2687.823,1560.855,2672.3,1600.15,2672.354,1642.678z"/>
<path fill="#C1A344" d="M2713.027,1745.643c34.172,29.018,77.654,17.89,103.074-26.386c25.418-44.279,25.418-108.883,0-153.158
	c-25.42-44.274-68.902-55.415-103.074-26.391c25.156,21.199,40.661,60.476,40.661,102.97
	C2753.688,1685.176,2738.184,1724.432,2713.027,1745.643z"/>
<path fill="#2C2F38" d="M1706.521,3011.787v-155.232c0-17.151-9.109-31.053-20.34-31.053h-40.659
	c-11.23,0-20.334,13.901-20.334,31.053v155.232H1706.521z"/>
<path fill="#2C3E50" d="M2387.694,2276.1h20.336c11.224,0,20.331-13.326,20.331-29.762c0-16.432-9.107-29.76-20.331-29.76h-20.336
	c-11.232,0-20.335,13.328-20.335,29.76C2367.359,2262.773,2376.462,2276.1,2387.694,2276.1z"/>
<path fill="#2C3E50" d="M2387.694,2157.049h20.336c11.224,0,20.331-13.314,20.331-29.74c0-16.451-9.107-29.768-20.331-29.768
	h-20.336c-11.232,0-20.335,13.316-20.335,29.768C2367.359,2143.734,2376.462,2157.049,2387.694,2157.049z"/>
<path fill="#F0C419" d="M2387.694,2038.015h20.336c11.224,0,20.331-13.321,20.331-29.76c0-16.436-9.107-29.764-20.331-29.764
	h-20.336c-11.232,0-20.335,13.328-20.335,29.764C2367.359,2024.693,2376.462,2038.015,2387.694,2038.015z"/>
<path fill="#F0C419" d="M2387.694,1918.981h20.336c11.224,0,20.331-13.324,20.331-29.764c0-16.432-9.107-29.761-20.331-29.761
	h-20.336c-11.232,0-20.335,13.329-20.335,29.761C2367.359,1905.657,2376.462,1918.981,2387.694,1918.981z"/>
<path fill="#2C3E50" d="M2387.694,2764.457h20.336c11.224,0,20.331-13.326,20.331-29.761c0-16.433-9.107-29.766-20.331-29.766
	h-20.336c-11.232,0-20.335,13.333-20.335,29.766C2367.359,2751.131,2376.462,2764.457,2387.694,2764.457z"/>
<path fill="#F0C419" d="M2387.694,2526.367h20.336c11.224,0,20.331-13.315,20.331-29.756c0-16.438-9.107-29.768-20.331-29.768
	h-20.336c-11.232,0-20.335,13.33-20.335,29.768C2367.359,2513.052,2376.462,2526.367,2387.694,2526.367z"/>
<path fill="#F0C419" d="M2387.694,2407.339h20.336c11.224,0,20.331-13.325,20.331-29.765c0-16.429-9.107-29.76-20.331-29.76h-20.336
	c-11.232,0-20.335,13.331-20.335,29.76C2367.359,2394.014,2376.462,2407.339,2387.694,2407.339z"/>
<path fill="#F0C419" d="M2387.694,2650.264h20.336c11.224,0,20.331-13.324,20.331-29.761c0-16.436-9.107-29.764-20.331-29.764
	h-20.336c-11.232,0-20.335,13.328-20.335,29.764C2367.359,2636.939,2376.462,2650.264,2387.694,2650.264z"/>
</svg>
